<svg xmlns="http://www.w3.org/2000/svg" version="1.1" xmlns:xlink="http://www.w3.org/1999/xlink" xmlns:svgjs="http://svgjs.dev/svgjs" width="32" height="32"><svg id="SvgjsSvg1013" xmlns="http://www.w3.org/2000/svg" viewBox="0 0 32 32"><defs><style>.cls-1{fill:#86efac;}.cls-2{fill:#1d1d1b;}.cls-3{fill:#fff;}</style></defs><rect class="cls-2" x="0" width="32" height="32"></rect><path class="cls-3" d="M20.07,20.61c0,.41.02.83.06,1.28.04.45.14.88.29,1.28-.1.1-.27.22-.52.36s-.55.21-.9.21c-.38,0-.69-.12-.95-.35-.25-.23-.38-.55-.38-.96l-.04-10.96.4-.82-4.26,10.92c-.45.15-.85.24-1.22.26-.36.02-.72-.04-1.07-.18-.52-1.06-1.05-2.21-1.58-3.43-.54-1.23-1.06-2.48-1.56-3.77s-.98-2.53-1.43-3.74l.32.44.02,9.47c0,.41.02.87.06,1.39s.14.98.29,1.38c-.1.1-.23.18-.39.24-.16.06-.33.1-.51.1-.29,0-.51-.1-.64-.29-.13-.19-.2-.44-.2-.74v-11.09c0-.59,0-1.09-.02-1.51-.01-.42-.06-.83-.13-1.22.11-.1.3-.17.58-.23.27-.06.65-.08,1.14-.08.31,0,.56.04.77.12s.38.19.51.35c.76,1.86,1.51,3.71,2.26,5.55.75,1.84,1.49,3.64,2.24,5.41l-.4-.04c.32-.81.66-1.7,1.03-2.67.36-.97.73-1.95,1.1-2.95.37-1,.73-1.97,1.08-2.92.35-.95.67-1.82.95-2.61.29-.1.58-.16.87-.19.29-.03.51-.04.68-.04.39,0,.74.06,1.04.17.3.11.47.25.52.4v11.46Z"></path><path class="cls-1" d="M24.86,23.73c-.42,0-.77-.14-1.05-.43s-.42-.63-.42-1.02.14-.75.42-1.04.63-.43,1.05-.43c.39,0,.73.14,1.01.43.28.29.42.63.42,1.04s-.14.73-.42,1.02c-.28.29-.62.43-1.01.43Z"></path></svg><style>@media (prefers-color-scheme: light) { :root { filter: none; } }
@media (prefers-color-scheme: dark) { :root { filter: none; } }
</style></svg>